# AST/ASF file generated using VICON BodyLanguage
# -----------------------------------------------
:version 1.10
:name VICON
:units
  mass 1.0
  length 0.45
  angle deg
:documentation
   .ast/.asf automatically generated from VICON data using
   VICON BodyBuilder and BodyLanguage model FoxedUp or BRILLIANT.MOD
:root
   order TX TY TZ RX RY RZ
   axis XYZ
   position 0 0 0  
   orientation 0 0 0 
:bonedata
  begin
     id 1 
     name lhipjoint
     direction 0.671379 -0.66392 0.329334 
     length 2.38647 
     axis 0 0 0  XYZ
  end
  begin
     id 2 
     name lfemur
     direction 0.34202 -0.939693 0  
     length 6.48179  
     axis 0 0 20  XYZ
    dof rx ry rz
    limits (-160.0 20.0)
           (-70.0 70.0)
           (-60.0 70.0)
  end
  begin
     id 3 
     name ltibia
     direction 0.34202 -0.939693 0   
     length 6.86524   
     axis 0 0 20   XYZ
    dof rx
    limits (-10.0 170.0)
  end
  begin
     id 4 
     name lfoot
     direction 0.204886 -0.562919 0.800715   
     length 1.73031   
     axis -90 7.62852e-016 20   XYZ
    dof rx rz
    limits (-45.0 90.0)
           (-70.0 20.0)
  end
  begin
     id 5 
     name ltoes
     direction 1.53548e-011 -4.21841e-011 1   
     length 0.828161   
     axis -90 7.62852e-016 20   XYZ
    dof rx
    limits (-90.0 20.0)
  end
  begin
     id 6 
     name rhipjoint
     direction -0.662732 -0.670855 0.332775   
     length 2.3618  
     axis 0 0 0  XYZ 
  end
  begin
     id 7 
     name rfemur
     direction -0.34202 -0.939693 0   
     length 6.3025   
     axis 0 0 -20   XYZ
    dof rx ry rz
    limits (-160.0 20.0)
           (-70.0 70.0)
           (-70.0 60.0)
  end
  begin
     id 8 
     name rtibia
     direction -0.34202 -0.939693 0   
     length 6.8732   
     axis 0 0 -20   XYZ
    dof rx
    limits (-10.0 170.0)
 end
 begin
     id 9 
     name rfoot
     direction -0.173856 -0.477665 0.861168   
     length 1.54784  
     axis -90 -7.62852e-016 -20   XYZ
    dof rx rz
    limits (-45.0 90.0)
           (-20.0 70.0)
  end
  begin
     id 10 
     name rtoes
     direction -1.53562e-011 -4.21802e-011 1   
     length 0.759618   
     axis -90 -7.62852e-016 -20   XYZ
    dof rx
    limits (-90.0 20.0)
  end
  begin
     id 11 
     name lowerback
     direction -0.0278357 0.999497 -0.0151789   
     length 1.97203   
     axis 0 0 0   XYZ
    dof rx ry rz
    limits (-20.0 45.0)
           (-30.0 30.0)
           (-30.0 30.0)
  end
  begin
     id 12 
     name upperback
     direction -0.00360622 0.997542 0.0699804   
     length 1.94709   
     axis 0 0 0   XYZ
    dof rx ry rz
    limits (-20.0 45.0)
           (-30.0 30.0)
           (-30.0 30.0)
  end
  begin
     id 13 
     name thorax
     direction 0.00907706 0.997048 0.0762461   
     length 1.95722   
     axis 0 0 0   XYZ
    dof rx ry rz
    limits (-20.0 45.0)
           (-30.0 30.0)
           (-30.0 30.0)
  end
  begin
     id 14 
     name lowerneck
     direction -0.0481835 0.99872 -0.0153927   
     length 1.63078   
     axis 0 0 0   XYZ
    dof rx ry rz
    limits (-20.0 45.0)
           (-30.0 30.0)
           (-30.0 30.0)
  end
  begin
     id 15 
     name upperneck
     direction 0.0859716 0.979226 -0.183644   
     length 1.62591   
     axis 0 0 0   XYZ
    dof rx ry rz
    limits (-20.0 45.0)
           (-30.0 30.0)
           (-30.0 30.0)
  end
  begin
     id 16
     name head
     direction 0.0324821 0.997629 -0.0606773  
     length 1.64811  
     axis 0 0 0   XYZ
    dof rx ry rz
    limits (-20.0 45.0)
           (-30.0 30.0)
           (-30.0 30.0)
  end
  begin
     id 17 
     name lclavicle
     direction 0.939609 0.311019 0.142835  
     length 3.70647  
     axis 0 0 0   XYZ
    dof ry rz
    limits (-20.0 10.0)
           (0.0 20.0)
  end
  begin
     id 18 
     name lhumerus
     direction 1 -4.48963e-011 -1.59838e-027   
     length 4.59207   
     axis 180 -30 -90   XYZ
    dof rx ry rz
    limits (-60.0 90.0)
           (-90.0 90.0)
           (-90.0 90.0)
  end
  begin
     id 19
     name lradius
     direction 1 -4.48957e-011 -1.3483e-026   
     length 2.98109   
     axis 180 -30 -90   XYZ
    dof rx
    limits (-10.0 170.0)
  end
  begin
     id 20
     name lwrist
     direction 1 -4.48954e-011 -3.11579e-026   
     length 1.49055   
     axis 2.00652e-014 90 90   XYZ
    dof ry
    limits (-180.0 0.0)
 end
  begin
     id 21 
     name lhand
     direction 1 -4.4911e-011 -6.23158e-026   
     length 0.480203   
     axis 3.97628e-014 90 90   XYZ
    dof rx rz
    limits (-90.0 90.0)
           (-45.0 45.0)
  end
  begin
     id 22 
     name lfingers
     direction 1 -4.48893e-011 -1.24632e-025   
     length 0.387152   
     axis 7.95256e-014 90 90   XYZ
    dof rx
    limits (0.0 90.0)
  end
  begin
     id 23
     name lthumb
     direction 0.707107 -6.35013e-011 0.707107   
     length 0.555875   
     axis -90 45 2.85299e-015   XYZ
    dof rx rz
    limits (-45.0 45.0)
           (-45.0 45.0)
  end
  begin
     id 24 
     name rclavicle
     direction -0.950396 0.30392 0.0661859   
     length 3.70894  
     axis 0 0 0   XYZ 
    dof ry rz
    limits (-10.0 20.0)
           (-20.0 0.0)
  end
  begin
     id 25 
     name rhumerus
     direction -1 -4.48957e-011 -2.96677e-027  
     length 4.76508   
     axis 180 30 90   XYZ
    dof rx ry rz
    limits (-90.0 60.0)
           (-90.0 90.0)
           (-90.0 90.0)
  end
  begin
     id 26 
     name rradius
     direction -1 -4.48974e-011 -1.44501e-026   
     length 2.78902   
     axis 180 30 90   XYZ
    dof rx
    limits (-10.0 170.0)
  end
  begin
     id 27 
     name rwrist
     direction -1 -4.48978e-011 -3.11579e-026   
     length 1.39451   
     axis 2.00652e-014 -90 -90   XYZ
    dof ry
    limits (-180.0 0.0)
  end
  begin
     id 28
     name rhand
     direction -1 -4.48956e-011 -6.23158e-026   
     length 0.721303   
     axis 3.97628e-014 -90 -90   XYZ
    dof rx rz
    limits (-90.0 90.0)
           (-45.0 45.0)
  end
  begin
     id 29
     name rfingers
     direction -1 -4.4899e-011 -1.24632e-025   
     length 0.581533   
     axis 7.95256e-014 -90 -90   XYZ
    dof rx
    limits (0.0 90.0)
  end
  begin
     id 30
     name rthumb
     direction -0.707107 -6.34911e-011 0.707107   
     length 0.834968   
     axis -90 -45 -2.85299e-015   XYZ
    dof rx rz
    limits (-45.0 45.0)
           (-45.0 45.0)
  end
:hierarchy
  begin
    root lhipjoint rhipjoint lowerback
    lhipjoint lfemur
    lfemur ltibia
    ltibia lfoot
    lfoot ltoes
    rhipjoint rfemur
    rfemur rtibia
    rtibia rfoot
    rfoot rtoes
    lowerback upperback
    upperback thorax
    thorax lowerneck lclavicle rclavicle
    lowerneck upperneck
    upperneck head
    lclavicle lhumerus
    lhumerus lradius
    lradius lwrist
    lwrist lhand lthumb
    lhand lfingers
    rclavicle rhumerus
    rhumerus rradius
    rradius rwrist
    rwrist rhand rthumb
    rhand rfingers
  end

#!OML:ASF I:\salsa\salsa 7_09\Patient 1\Session 1\dancerfemale.ASF
:FULLY-SPECIFIED
:DEGREES
242
root 24.4256 15.6159 0.0817385 -102.877 -93.1602 110.003
lowerback 0.915797 1.5499 1.59062
upperback -6.21339 2.05517 0.453598
thorax -6.93771 0.887227 -0.551203
lowerneck -0.676147 -4.28531 -11.5542
upperneck 10.4603 -6.75273 12.3264
head 4.00227 -3.37498 5.4332
rclavicle -3.2551e-014 -9.54166e-015
rhumerus -40.0534 -0.625084 -98.0219
rradius 87.112
rwrist -210.118
rhand -41.9892 -60.0354
rfingers 7.12502
rthumb -14.8848 270.519
lclavicle -3.2551e-014 -9.54166e-015
lhumerus -53.6662 25.7903 56.4477
lradius 29.8101
lwrist -36.682
lhand -17.9846 28.4292
lfingers 7.12502
lthumb 8.28516 58.2468
rfemur -14.5087 -9.99272 27.6301
rtibia 29.8266
rfoot -30.2407 -4.78457
rtoes -23.613
lfemur -24.5163 -6.73064 -18.2073
ltibia 54.2528
lfoot -28.6077 4.86267
ltoes -40.9637
243
root 24.4475 15.6169 0.104092 -115.275 -93.7875 122.36
lowerback 1.27911 1.24659 2.13853
upperback -6.00145 1.71263 0.867938
thorax -6.92676 0.704258 -0.408399
lowerneck -0.875329 -4.21115 -12.9151
upperneck 9.75518 -6.50881 12.6084
head 3.8498 -3.27556 5.75929
rclavicle 1.36602e-014 -8.44835e-015
rhumerus -39.6196 1.4438 -98.841
rradius 89.0284
rwrist -211.124
rhand -41.8135 -59.8474
rfingers 7.12502
rthumb -14.7155 270.695
lclavicle 1.36602e-014 -8.44835e-015
lhumerus -54.0567 26.6115 53.913
lradius 30.4499
lwrist -36.8893
lhand -16.5973 27.4377
lfingers 7.12502
lthumb 9.62392 57.1979
rfemur -14.2458 -10.5695 27.8726
rtibia 29.2729
rfoot -30.0333 -5.04804
rtoes -23.8778
lfemur -25.9724 -5.30072 -17.2612
ltibia 56.1146
lfoot -27.7746 1.69062
ltoes -42.0571
244
root 24.4588 15.6213 0.133024 -122.256 -94.5345 129.123
lowerback 1.45771 1.45313 2.94863
upperback -5.6477 2.0408 0.846256
thorax -6.61953 0.833956 -0.907309
lowerneck -0.59765 -4.60488 -13.0397
upperneck 8.7882 -6.96561 12.5658
head 3.58116 -3.50708 5.74413
rclavicle 2.95413e-014 1.65737e-014
rhumerus -38.8308 2.02661 -99.3288
rradius 90.7946
rwrist -211.605
rhand -41.9353 -60.0342
rfingers 7.12502
rthumb -14.8329 270.517
lclavicle 2.95413e-014 1.65737e-014
lhumerus -52.8836 25.6844 52.8211
lradius 31.4492
lwrist -36.2662
lhand -15.5302 27.2859
lfingers 7.12502
lthumb 10.6533 56.9958
rfemur -13.6203 -10.6406 28.1274
rtibia 28.553
rfoot -29.8201 -5.70629
rtoes -24.0584
lfemur -27.1662 -4.15709 -16.2412
ltibia 57.9701
lfoot -27.0202 -1.02068
ltoes -42.2683
245
root 24.4618 15.6268 0.169305 -127.431 -95.3 133.913
lowerback 1.84627 1.60445 3.62373
upperback -5.36278 2.3045 0.965416
thorax -6.51349 0.941029 -1.186
lowerneck -0.290415 -4.94457 -13.1663
upperneck 8.11049 -7.35952 12.2618
head 3.37719 -3.71781 5.65337
rclavicle 2.04344e-014 2.32081e-014
rhumerus -38.2353 2.9907 -99.6081
rradius 92.4164
rwrist -211.674
rhand -42.189 -60.4357
rfingers 7.12502
rthumb -15.0772 270.133
lclavicle 2.04344e-014 2.32081e-014
lhumerus -51.9546 24.612 52.0153
lradius 32.5735
lwrist -35.2325
lhand -14.7623 26.5891
lfingers 7.12502
lthumb 11.394 56.2595
rfemur -12.7015 -10.383 28.2948
rtibia 27.7737
rfoot -29.5786 -6.69283
rtoes -24.0185
lfemur -28.0366 -3.49086 -15.1513
ltibia 59.6373
lfoot -26.351 -1.54893
ltoes -42.4987
246
root 24.4656 15.6334 0.209556 -131.098 -96.1588 137.198
lowerback 2.36351 1.69328 4.20336
upperback -5.20109 2.49631 1.21712
thorax -6.62261 1.01403 -1.27508
lowerneck -0.00939974 -5.20439 -13.4522
upperneck 7.71535 -7.67776 12.0404
head 3.25956 -3.89358 5.62037
rclavicle -7.47927e-015 6.36111e-015
rhumerus -37.8103 4.30391 -99.8369
rradius 93.7922
rwrist -211.664
rhand -42.1471 -60.5418
rfingers 7.12502
rthumb -15.0368 270.024
lclavicle -7.47927e-015 6.36111e-015
lhumerus -51.1817 23.8279 51.1894
lradius 33.6631
lwrist -34.612
lhand -13.6482 26.1661
lfingers 7.12502
lthumb 12.4683 55.7742
rfemur -11.7429 -9.87048 28.5375
rtibia 26.9245
rfoot -29.2179 -7.92678
rtoes -23.8774
lfemur -28.8648 -2.92342 -13.828
ltibia 61.0107
lfoot -25.5667 -0.300652
ltoes -42.7122
247
root 24.4685 15.6387 0.249222 -133.48 -96.979 139.3
lowerback 2.75908 1.69137 4.65281
upperback -5.05409 2.55898 1.55271
thorax -6.69146 1.03152 -1.19112
lowerneck 0.105642 -5.32848 -13.9986
upperneck 7.45898 -7.81865 12.0363
head 3.20562 -3.97743 5.7045
rclavicle -2.23012e-014 -6.75868e-015
rhumerus -37.2699 6.20206 -100.056
rradius 94.7778
rwrist -211.853
rhand -41.979 -60.4997
rfingers 7.12502
rthumb -14.8749 270.054
lclavicle -2.23012e-014 -6.75868e-015
lhumerus -50.4487 23.4757 50.3916
lradius 34.648
lwrist -34.6751
lhand -12.8815 25.5719
lfingers 7.12502
lthumb 13.2074 55.1335
rfemur -10.8971 -8.82512 28.8278
rtibia 26.0657
rfoot -28.8213 -9.51751
rtoes -23.5425
lfemur -29.7069 -2.46142 -12.2471
ltibia 61.9018
lfoot -24.4672 0.0636012
ltoes -42.2208
248
root 24.4647 15.6531 0.287149 -135.707 -97.6049 141.351
lowerback 3.02987 1.61717 4.89277
upperback -4.92792 2.50366 1.84284
thorax -6.72186 1.00061 -1.02442
lowerneck 0.17064 -5.38246 -14.3799
upperneck 7.18179 -7.84488 11.8376
head 3.12529 -4.00215 5.70475
rclavicle 1.26104e-014 -3.97569e-015
rhumerus -36.7234 8.36928 -100.362
rradius 95.3806
rwrist -211.928
rhand -42.1133 -60.6664
rfingers 7.12502
rthumb -15.0044 90.1028
lclavicle 1.26104e-014 -3.97569e-015
lhumerus -49.6189 22.6197 50.0941
lradius 35.7395
lwrist -34.3566
lhand -12.6183 25.3527
lfingers 7.12502
lthumb 13.4611 54.8977
rfemur -10.1343 -7.34206 28.9807
rtibia 25.1852
rfoot -28.4759 -11.3467
rtoes -23.3499
lfemur -30.4206 -2.20538 -10.6124
ltibia 62.1643
lfoot -23.0522 -0.314564
ltoes -41.0866
249
root 24.452 15.6726 0.326848 -138.095 -98.016 143.673
lowerback 3.11575 1.60937 4.78864
upperback -4.84903 2.50086 2.05426
thorax -6.70103 1.01179 -0.747499
lowerneck 0.369565 -5.45629 -14.4597
upperneck 6.82742 -7.91383 11.5428
head 2.98969 -4.04603 5.62773
rclavicle 4.63417e-015 2.38542e-015
rhumerus -36.2388 10.3417 -100.653
rradius 95.6472
rwrist -211.758
rhand -42.4298 -60.9037
rfingers 7.12502
rthumb -15.3092 90.3171
lclavicle 4.63417e-015 2.38542e-015
lhumerus -48.6275 20.9717 50.3783
lradius 37.153
lwrist -33.4612
lhand -11.8461 24.722
lfingers 7.12502
lthumb 14.2053 54.2163
rfemur -9.49159 -6.27545 28.9009
rtibia 24.3194
rfoot -28.153 -12.7044
rtoes -23.4294
lfemur -30.9003 -2.02901 -9.06773
ltibia 61.7698
lfoot -21.6033 0.932681
ltoes -39.5017
250
root 24.4299 15.6948 0.370438 -140.119 -98.2633 145.704
lowerback 3.03094 1.79713 4.35106
upperback -4.80048 2.72726 2.23715
thorax -6.61629 1.15325 -0.329341
lowerneck 0.681727 -5.65667 -14.3107
upperneck 6.41885 -8.17796 11.2925
head 2.83694 -4.18307 5.52213
rclavicle 1.78161e-014 1.98785e-014
rhumerus -35.816 11.8159 -100.678
rradius 95.7036
rwrist -211.264
rhand -42.9126 -61.2631
rfingers 7.12502
rthumb -15.7742 90.6404
lclavicle 1.78161e-014 1.98785e-014
lhumerus -47.4147 18.6901 51.2753
lradius 38.9322
lwrist -32.2703
lhand -10.8467 23.4488
lfingers 7.12502
lthumb 15.1681 52.8729
rfemur -8.94442 -5.96857 28.674
rtibia 23.4764
rfoot -27.7826 -13.2886
rtoes -23.3266
lfemur -31.0768 -2.08588 -7.51301
ltibia 60.7439
lfoot -20.0619 3.90258
ltoes -37.047
251
root 24.4024 15.7156 0.418525 -142.424 -98.4567 147.997
lowerback 2.9629 2.03583 3.79211
upperback -4.76563 3.01589 2.38138
thorax -6.56353 1.32977 0.110288
lowerneck 0.999501 -5.92763 -14.1355
upperneck 6.04348 -8.54493 11.0758
head 2.70554 -4.3703 5.41928
rclavicle 1.36664e-014 -8.74653e-015
rhumerus -35.6278 12.9592 -100.626
rradius 95.6262
rwrist -210.484
rhand -43.7579 -61.8853
rfingers 7.12502
rthumb -16.5882 91.1963
lclavicle 1.36664e-014 -8.74653e-015
lhumerus -46.2066 16.2696 52.3542
lradius 41.0596
lwrist -31.0573
lhand -9.89422 22.6702
lfingers 7.12502
lthumb 16.0855 52.0226
rfemur -8.33592 -6.15222 28.3263
rtibia 22.5521
rfoot -27.3543 -13.4919
rtoes -23.4165
lfemur -30.9069 -2.39772 -6.002
ltibia 59.1523
lfoot -18.786 6.6234
ltoes -33.8599
252
root 24.3687 15.7319 0.47543 -145.071 -98.5633 150.626
lowerback 2.92203 2.16602 3.35047
upperback -4.74954 3.16408 2.4089
thorax -6.54296 1.42738 0.37363
lowerneck 1.1603 -6.10967 -14.0496
upperneck 5.86321 -8.79025 10.9411
head 2.64812 -4.4951 5.35734
rclavicle 7.1811e-015 -1.27222e-014
rhumerus -35.6418 14.1266 -100.804
rradius 95.2656
rwrist -209.397
rhand -44.0899 -62.1111
rfingers 7.12502
rthumb -16.9077 91.3951
lclavicle 7.1811e-015 -1.27222e-014
lhumerus -45.2408 14.2376 53.0811
lradius 43.4909
lwrist -29.9665
lhand -9.0267 22.4101
lfingers 7.12502
lthumb 16.9207 51.693
rfemur -7.70877 -6.7665 27.809
rtibia 21.6454
rfoot -26.9653 -13.3378
rtoes -24.0799
lfemur -30.4836 -2.92142 -4.61583
ltibia 57.1548
lfoot -17.8488 9.28542
ltoes -32.4378
